<svg version="1.1" id="Layer_1" xmlns="http://www.w3.org/2000/svg" xmlns:xlink="http://www.w3.org/1999/xlink" x="0px" y="0px"
	 width="100%" viewBox="0 0 500 500" enable-background="new 0 0 500 500" xml:space="preserve">
<path fill="#FFFFFF" opacity="1.000000" stroke="none" 
	d="
M501.000000,190.000000 
	C501.000000,293.999969 501.000000,397.499969 501.000000,500.999939 
	C334.333405,500.999969 167.666794,500.999969 1.000145,501.000000 
	C1.000097,334.333435 1.000097,167.666870 1.000048,1.000234 
	C167.666519,1.000156 334.333038,1.000156 500.999786,1.000078 
	C501.000000,63.833332 501.000000,126.666664 501.000000,190.000000 
M73.057411,342.509369 
	C83.688248,362.520294 96.631721,380.850708 113.521317,396.063904 
	C171.682541,448.452332 238.877594,464.977142 313.241089,440.570068 
	C414.856079,407.218719 469.814789,305.426056 444.798523,201.987671 
	C420.908783,103.207291 320.064819,36.383739 219.986145,53.290398 
	C167.473099,62.161621 123.797089,87.057014 92.142036,129.933716 
	C43.193192,196.234787 37.991959,267.423035 73.057411,342.509369 
z"/>
<path fill="#F04B4B" opacity="1.000000" stroke="none" 
	d="
M72.911026,342.167847 
	C37.991959,267.423035 43.193192,196.234787 92.142036,129.933716 
	C123.797089,87.057014 167.473099,62.161621 219.986145,53.290398 
	C320.064819,36.383739 420.908783,103.207291 444.798523,201.987671 
	C469.814789,305.426056 414.856079,407.218719 313.241089,440.570068 
	C238.877594,464.977142 171.682541,448.452332 113.521317,396.063904 
	C96.631721,380.850708 83.688248,362.520294 72.911026,342.167847 
M254.434357,444.936432 
	C261.730042,444.342041 269.062347,444.033875 276.315460,443.106445 
	C320.730255,437.427338 358.984161,418.560791 389.658447,386.257355 
	C437.276520,336.110321 454.617828,276.422119 439.938263,208.578308 
	C416.402130,99.802605 303.510773,33.304001 196.890091,64.751274 
	C96.325180,94.412430 37.824482,195.930710 62.669769,297.668457 
	C83.975578,384.912537 162.776291,445.745819 254.434357,444.936432 
z"/>
<path fill="#FFFCFC" opacity="1.000000" stroke="none" 
	d="
M253.944412,444.944275 
	C162.776291,445.745819 83.975578,384.912537 62.669769,297.668457 
	C37.824482,195.930710 96.325180,94.412430 196.890091,64.751274 
	C303.510773,33.304001 416.402130,99.802605 439.938263,208.578308 
	C454.617828,276.422119 437.276520,336.110321 389.658447,386.257355 
	C358.984161,418.560791 320.730255,437.427338 276.315460,443.106445 
	C269.062347,444.033875 261.730042,444.342041 253.944412,444.944275 
M136.343719,315.162567 
	C136.932358,316.167267 137.517166,317.174225 138.110168,318.176331 
	C166.624847,366.364990 224.262619,391.609375 278.237915,379.564178 
	C347.546387,364.097137 393.261475,297.597046 379.916565,227.209824 
	C363.178833,138.927444 266.765289,92.630814 187.359436,136.261749 
	C123.127251,171.555267 101.106621,250.032074 136.343719,315.162567 
M224.100052,428.817780 
	C234.933273,426.601166 240.516800,420.497528 240.929199,410.421082 
	C241.278214,401.893066 236.149277,394.630920 227.538071,392.331970 
	C222.146805,390.892609 216.551315,390.218262 210.603134,389.118500 
	C208.463333,401.580048 206.402756,413.580292 204.227570,426.247955 
	C210.852081,427.160004 217.047195,428.012939 224.100052,428.817780 
M291.216583,81.549698 
	C286.773560,72.123970 278.159515,67.801010 268.354218,70.076225 
	C259.830139,72.054146 253.855011,80.103867 254.048141,89.349411 
	C254.238892,98.481148 260.709534,106.007149 270.184662,107.602051 
	C285.137482,110.118980 295.858459,96.328636 291.216583,81.549698 
M121.738350,186.081970 
	C125.498589,175.254898 122.852654,166.991028 114.042656,162.046616 
	C105.451134,157.224808 95.963036,158.656174 90.456512,166.399918 
	C86.858948,171.459122 84.333954,177.281006 81.131325,183.120850 
	C92.699486,188.940414 103.592941,194.420563 114.760223,200.038467 
	C117.089600,195.362137 119.230408,191.064346 121.738350,186.081970 
M362.509705,124.088707 
	C367.594635,118.294601 368.422607,112.925072 363.707764,108.165344 
	C359.013947,103.426865 353.354614,99.644806 347.954346,95.311546 
	C340.241882,105.826736 333.084503,115.585091 325.708069,125.642097 
	C328.216400,127.515060 330.528839,129.241760 332.894562,131.008240 
	C335.999176,127.014351 338.751160,123.474113 341.737091,119.632912 
	C342.410126,120.775230 342.888184,121.205132 342.855438,121.591789 
	C342.603973,124.562660 342.246735,127.524445 341.934692,130.490356 
	C341.125671,138.179230 341.593689,138.932617 349.392914,142.072495 
	C350.030975,136.780746 350.657318,131.586334 351.135132,127.623634 
	C355.214722,126.481720 358.580170,125.539711 362.509705,124.088707 
M161.078964,92.418930 
	C156.552505,95.065407 152.026062,97.711884 147.193756,100.537186 
	C153.696869,111.632263 159.859360,122.146217 166.137466,132.857422 
	C169.143051,131.060898 171.485641,129.660660 173.829849,128.259460 
	C171.367828,123.784470 169.221634,119.883522 167.075439,115.982574 
	C167.459686,115.625946 167.843933,115.269325 168.228180,114.912697 
	C170.864151,116.395622 173.530792,117.826904 176.130234,119.371315 
	C183.477890,123.736786 183.467041,123.755051 190.808609,117.720963 
	C186.155411,115.027779 181.623169,112.404587 177.910187,110.255577 
	C178.518600,106.202705 179.963913,102.580521 179.372635,99.328644 
	C177.906357,91.264626 170.689285,88.554031 161.078964,92.418930 
M291.944183,391.715179 
	C290.447784,401.282806 293.697479,409.464172 299.720276,416.588379 
	C303.680145,421.272400 308.644470,422.037140 314.731903,419.717621 
	C320.694885,417.445526 324.589355,413.249359 323.762024,407.434753 
	C322.871368,401.175079 320.790009,394.903625 318.150452,389.130005 
	C315.946442,384.309082 311.611023,381.019562 305.687744,381.636230 
	C299.548492,382.275452 294.457581,384.688354 291.944183,391.715179 
M130.675201,124.803993 
	C128.585953,123.001625 126.496689,121.199257 124.158302,119.181969 
	C122.006355,121.724594 120.240997,123.810448 118.314743,126.086411 
	C124.139641,131.172104 129.601593,135.793213 134.888916,140.606186 
	C138.783752,144.151596 138.846588,147.722336 135.403870,150.907028 
	C132.073441,153.987854 129.004028,152.769287 126.092415,150.262894 
	C120.612526,145.545654 115.176224,140.777771 109.551079,135.882385 
	C107.295937,138.537537 105.525520,140.621964 103.636284,142.846298 
	C109.766838,148.160019 115.286766,153.233994 121.115822,157.923767 
	C128.454407,163.828049 136.260696,162.953079 142.290451,155.929260 
	C148.455673,148.747665 148.170639,140.566437 141.376953,134.148743 
	C138.109238,131.061874 134.621613,128.207825 130.675201,124.803993 
M322.256012,97.760574 
	C321.041565,100.673439 320.242371,103.878090 318.470764,106.399475 
	C317.232117,108.162300 314.729156,109.907715 312.676117,110.054420 
	C307.693298,110.410469 304.969360,106.121460 306.828278,101.226021 
	C309.465149,94.281746 312.406036,87.452904 315.357849,80.230110 
	C312.492493,78.992233 309.980133,77.906853 306.996948,76.618073 
	C303.834442,84.388031 300.584930,91.645088 297.922394,99.111458 
	C295.090485,107.052856 298.503876,113.822578 306.492157,117.298737 
	C314.717926,120.878235 322.506775,118.827621 326.225800,111.377647 
	C329.838928,104.139755 332.693512,96.523209 336.047913,88.683289 
	C333.050171,87.511589 330.485443,86.509148 327.553741,85.363258 
	C325.814209,89.488350 324.212982,93.285484 322.256012,97.760574 
M361.379333,156.960327 
	C367.983582,165.715683 375.241913,168.135117 384.625946,163.866806 
	C381.597412,161.346649 379.279083,158.081924 376.258148,157.185745 
	C370.241241,155.400848 366.449524,151.955383 367.101227,146.843872 
	C367.791107,141.433380 374.044678,136.410980 379.603699,136.802841 
	C383.919373,137.107056 388.409119,141.094864 387.753540,145.260544 
	C386.880188,150.810211 390.528809,153.072464 394.406464,156.127289 
	C395.598328,151.855377 396.998627,147.416733 396.302185,143.335907 
	C394.972382,135.543625 389.867645,130.112885 382.104736,128.248108 
	C374.043365,126.311646 367.324768,129.456543 362.310944,135.838562 
	C357.270020,142.255035 356.966949,149.202820 361.379333,156.960327 
M82.969780,314.854034 
	C85.294167,313.558319 87.771263,312.472290 89.906845,310.917267 
	C93.041573,308.634674 95.799477,308.628571 98.940659,310.943726 
	C101.260735,312.653717 103.957008,313.853302 107.097054,315.625305 
	C106.352333,310.126984 104.210785,305.046753 105.550331,301.169128 
	C106.873734,297.338287 111.715469,294.722870 115.913445,290.715454 
	C111.784821,290.374176 109.003075,289.961273 106.220856,289.958008 
	C102.255745,289.953339 99.658363,288.539978 98.423294,284.505768 
	C97.543060,281.630585 95.994904,278.959869 94.744812,276.197906 
	C94.364304,275.973175 93.983803,275.748474 93.603294,275.523773 
	C91.842598,287.058960 85.530159,292.415741 73.652458,290.566772 
	C76.180069,293.651886 78.306343,295.940308 80.731522,297.848907 
	C83.569885,300.082733 84.504944,302.444427 83.323685,306.061310 
	C82.427727,308.804657 82.515472,311.869232 82.969780,314.854034 
M421.915192,297.654388 
	C424.122650,295.585327 426.330078,293.516266 429.343475,290.691772 
	C425.365845,290.365753 422.582397,289.956177 419.798431,289.952911 
	C415.840210,289.948273 413.277557,288.456787 412.013641,284.510559 
	C411.098480,281.653198 409.611542,278.978973 408.379578,276.223114 
	C407.943604,276.066162 407.507629,275.909210 407.071655,275.752258 
	C405.667816,287.516357 398.748993,291.956787 387.072693,290.984711 
	C397.196228,297.127472 399.642670,305.021454 394.890717,315.354370 
	C398.028503,314.077545 400.495544,313.026917 402.574402,311.460938 
	C406.242310,308.697937 409.579712,308.445953 413.317139,311.371460 
	C415.424774,313.021301 417.984314,314.093811 421.183868,315.903503 
	C420.301270,311.688721 419.766113,308.602570 418.990479,305.578094 
	C418.212769,302.545380 418.585571,300.008606 421.915192,297.654388 
M149.093094,391.410767 
	C149.320938,385.715973 145.366867,383.536743 141.169281,381.361328 
	C136.699081,389.430664 141.908112,398.785522 151.955124,401.476349 
	C156.608231,402.722534 160.529648,401.457062 163.609497,397.830139 
	C166.712265,394.176178 166.582352,390.220581 164.169281,386.279449 
	C162.347870,383.304626 160.046005,380.568207 158.641846,377.420593 
	C158.064377,376.126099 159.281204,374.031219 159.681900,372.300385 
	C161.428253,373.173187 164.687485,374.065491 164.676529,374.915619 
	C164.602936,380.622711 169.340240,381.424744 172.514954,383.865936 
	C178.478378,377.020844 170.941040,366.167175 161.076630,364.050812 
	C156.647781,363.100677 152.891937,364.388184 150.139572,368.239716 
	C147.332443,372.167847 147.752350,376.049408 150.151764,379.880432 
	C151.561157,382.130737 153.601791,384.059662 154.638016,386.445984 
	C155.445984,388.306641 155.142761,390.649811 155.333344,392.778595 
	C153.408691,392.506195 151.484039,392.233795 149.093094,391.410767 
M235.057266,78.291275 
	C238.351181,78.672791 241.645081,79.054306 245.265320,79.473625 
	C243.451874,70.252731 234.799026,66.749680 225.563599,70.376297 
	C220.620178,72.317497 217.858597,76.211166 218.035538,80.990410 
	C218.217560,85.907028 221.051102,89.268913 226.468475,90.774117 
	C229.182953,91.528320 232.074524,91.774879 234.659454,92.814392 
	C236.092484,93.390671 237.374847,94.973824 238.078445,96.418167 
	C238.357040,96.990059 237.042633,99.099571 236.169891,99.305214 
	C234.570908,99.681976 231.907394,99.831902 231.184143,98.906685 
	C227.668289,94.409042 223.862320,97.648232 220.062103,97.473228 
	C221.744308,104.764366 226.067078,107.599586 234.303635,107.234489 
	C241.629135,106.909775 246.970673,102.900108 247.861069,97.057503 
	C248.571945,92.392845 246.227814,88.120636 241.565338,86.360146 
	C238.631485,85.252357 235.471939,84.756302 232.448898,83.866127 
	C230.067444,83.164871 226.978745,82.495720 228.019974,79.127800 
	C229.102768,75.625488 231.912262,76.266327 235.057266,78.291275 
M354.360748,352.285156 
	C355.701263,359.299194 356.707428,366.401337 358.522552,373.290344 
	C359.437256,376.761902 361.819092,379.846924 364.151184,384.270905 
	C369.210754,378.861023 373.045837,374.760345 377.002228,370.529999 
	C378.872589,372.073456 380.485870,373.404755 381.590912,374.316650 
	C384.059326,372.373840 386.245178,370.653412 388.526367,368.857971 
	C386.640533,366.848511 385.290771,365.410248 383.896637,363.924683 
	C384.696045,362.591217 385.401001,361.415344 386.075073,360.290955 
	C383.363037,357.552612 381.453888,353.617371 376.173889,358.850800 
	C371.000519,352.915497 366.109161,347.303741 360.311554,340.652283 
	C357.876251,344.960907 356.030579,348.226288 354.360748,352.285156 
M395.873871,222.686874 
	C404.265991,228.545670 411.604462,225.555679 413.312897,215.506912 
	C413.785431,212.727417 413.485260,209.740814 414.378021,207.136673 
	C414.921417,205.551575 417.067902,204.516037 418.494293,203.233643 
	C419.291290,205.173431 421.318512,208.072647 420.679260,208.892349 
	C417.329010,213.188263 420.072693,216.564484 421.197998,220.278214 
	C430.141510,218.506622 431.261902,205.732773 424.934967,197.626526 
	C422.175293,194.090698 418.463470,193.088943 414.224213,194.022141 
	C410.059570,194.938889 407.504242,197.631348 406.834595,201.821472 
	C406.285492,205.257828 406.307526,208.795685 405.611816,212.193420 
	C405.327454,213.582123 404.036438,215.092026 402.781708,215.825394 
	C402.088348,216.230682 399.865295,215.453552 399.491791,214.662033 
	C398.791351,213.177826 398.104889,210.526520 398.864410,209.708420 
	C402.813812,205.454269 399.677155,201.944260 398.610840,198.033386 
	C389.240295,202.482788 387.985168,212.832352 395.873871,222.686874 
M289.922089,424.476288 
	C289.621552,423.049988 289.321045,421.623718 288.953979,419.881653 
	C284.645477,420.396332 280.625183,420.876617 275.672363,421.468292 
	C277.679504,418.864532 279.331024,417.200073 280.406921,415.222443 
	C282.369812,411.614349 284.565887,407.974304 285.610901,404.065826 
	C286.925720,399.147980 284.312683,393.618927 280.358093,391.543732 
	C274.992706,388.728241 269.615295,389.461334 264.782593,392.765015 
	C260.580017,395.637909 259.113190,399.855774 260.301453,405.145874 
	C264.238647,404.703186 268.777924,406.111206 269.319916,399.913239 
	C269.386383,399.153198 271.779083,397.905396 272.871368,398.104370 
	C274.183868,398.343475 276.189758,399.836609 276.249969,400.881561 
	C276.394562,403.392242 276.264099,406.381439 275.009338,408.415588 
	C272.236755,412.910370 268.960815,417.170349 265.400482,421.080109 
	C262.427216,424.345215 262.387115,427.299713 264.365845,430.807159 
	C271.704681,429.778625 278.791077,428.891235 285.828796,427.713196 
	C287.304169,427.466217 288.600433,426.149139 289.922089,424.476288 
M324.309235,371.941345 
	C320.531921,377.862335 320.542664,381.804688 324.529755,387.096619 
	C326.681915,385.656311 328.847656,384.206909 331.251984,382.597870 
	C329.632904,379.258209 329.033051,375.699097 333.419861,375.022919 
	C337.829041,374.343323 338.660553,378.172791 339.058777,381.610779 
	C339.229340,383.083344 339.262726,384.648956 338.954224,386.085480 
	C338.014496,390.461456 337.264404,394.939453 335.709839,399.105042 
	C334.140839,403.309326 335.559387,405.963135 338.693146,408.615417 
	C346.024048,403.825104 353.195190,399.139221 360.660736,394.260925 
	C359.123322,391.983582 357.939850,390.230560 356.547852,388.168701 
	C352.749207,390.584900 349.185608,392.851624 345.114563,395.441101 
	C346.003296,391.011810 346.864929,387.326080 347.464264,383.598145 
	C348.564117,376.756836 345.589783,369.958710 340.469513,367.225922 
	C335.676453,364.667786 330.813904,365.964844 324.309235,371.941345 
M79.641174,219.836243 
	C88.948799,222.085556 98.256416,224.334885 108.054108,226.702637 
	C109.933777,219.019257 111.678551,211.887268 113.487556,204.492706 
	C110.694313,203.854156 108.682434,203.394226 106.558197,202.908630 
	C105.244530,207.630585 104.073746,211.838959 102.856506,216.214325 
	C100.053619,215.364960 97.890419,214.709427 95.454468,213.971252 
	C96.324364,209.904617 97.106491,206.248322 97.945282,202.327103 
	C95.604042,201.774841 93.587181,201.299088 91.333603,200.767502 
	C90.234802,204.832748 89.260735,208.436523 88.201309,212.356079 
	C85.516983,211.712967 83.354683,211.194916 81.100494,210.654861 
	C82.184525,205.985672 83.149895,201.827621 84.201622,197.297623 
	C81.664436,196.741348 79.513870,196.269852 77.141136,195.749649 
	C75.274605,203.340668 73.545425,210.373108 71.755096,217.654205 
	C74.424255,218.394501 76.635773,219.007858 79.641174,219.836243 
M403.670471,180.931946 
	C402.663147,178.897446 401.655823,176.862961 400.542572,174.614502 
	C403.072113,173.403091 405.079834,172.441605 407.232697,171.410614 
	C409.473297,175.792450 411.404175,179.568527 413.455688,183.580612 
	C415.870575,182.379120 417.748352,181.444839 419.933289,180.357742 
	C416.442993,173.332306 413.143616,166.691162 409.718353,159.796692 
	C398.403198,165.437561 387.482300,170.881882 376.222748,176.495010 
	C379.783447,183.635223 383.076752,190.239212 386.465942,197.035507 
	C388.846069,195.776672 390.720520,194.785278 392.779236,193.696442 
	C390.751892,189.396317 388.886322,185.439331 386.935577,181.301620 
	C389.589630,180.062363 391.771057,179.043777 394.062653,177.973740 
	C396.095062,181.763611 397.857635,185.050400 399.763855,188.604950 
	C401.971954,187.451324 403.700745,186.548111 405.602905,185.554321 
	C404.987457,184.068665 404.485474,182.856964 403.670471,180.931946 
M195.265137,86.428497 
	C199.385193,84.409149 203.505264,82.389801 207.852188,80.259262 
	C207.120880,78.305267 206.339233,76.216736 205.508377,73.996719 
	C198.077194,76.483635 191.061981,78.831352 183.938400,81.215332 
	C187.910126,93.245224 191.695084,104.709396 195.657959,116.712524 
	C203.083618,114.264931 210.086166,111.956810 217.402039,109.545403 
	C216.603500,107.045319 215.967804,105.055031 215.228302,102.739777 
	C210.619751,104.113655 206.447372,105.357506 201.996338,106.684418 
	C201.110672,103.970215 200.406906,101.813454 199.582413,99.286697 
	C203.562332,97.868095 207.219635,96.564476 211.128891,95.171059 
	C210.189819,92.734222 209.443192,90.796776 208.662872,88.771889 
	C204.662292,90.004051 201.083618,91.106270 197.348709,92.256607 
	C196.629333,90.236969 196.078598,88.690788 195.265137,86.428497 
M153.058258,357.361328 
	C148.254623,351.645721 143.450974,345.930115 138.408524,339.930389 
	C128.735016,348.940338 119.816185,357.247375 110.719727,365.719879 
	C116.201622,371.560547 121.253952,376.943512 126.538025,382.573425 
	C128.557861,380.692932 130.099182,379.257965 131.839005,377.638184 
	C128.482742,373.997772 125.574738,370.843536 122.399757,367.399750 
	C124.501961,365.467804 126.389267,363.733368 128.382568,361.901520 
	C131.293259,364.972473 133.882156,367.703918 136.743027,370.722290 
	C138.672089,368.995880 140.226807,367.604492 141.877777,366.126953 
	C138.791336,362.668060 136.286758,359.861237 133.614410,356.866394 
	C135.609787,355.046783 137.270767,353.532135 139.009872,351.946259 
	C142.305283,355.391998 145.270966,358.492950 148.456329,361.823608 
	C149.991974,360.413849 151.313080,359.201019 153.058258,357.361328 
M180.006134,384.411804 
	C182.373703,385.497101 184.741272,386.582428 187.428802,387.814423 
	C183.498749,397.150452 179.716919,406.134338 175.813004,415.408264 
	C178.755768,416.591370 181.306992,417.617035 184.206894,418.782928 
	C188.230316,409.441101 192.076477,400.510864 196.016006,391.363892 
	C199.314194,392.692932 202.032883,393.788452 205.113998,395.030029 
	C206.093109,392.664764 206.941849,390.614349 207.885345,388.335114 
	C198.791000,384.486542 190.150269,380.829926 180.858780,376.897949 
	C180.267441,379.704346 179.815887,381.847412 180.006134,384.411804 
z"/>
<path fill="#F04B4B" opacity="1.000000" stroke="none" 
	d="
M136.169495,314.839233 
	C101.106621,250.032074 123.127251,171.555267 187.359436,136.261749 
	C266.765289,92.630814 363.178833,138.927444 379.916565,227.209824 
	C393.261475,297.597046 347.546387,364.097137 278.237915,379.564178 
	C224.262619,391.609375 166.624847,366.364990 138.110168,318.176331 
	C137.517166,317.174225 136.932358,316.167267 136.169495,314.839233 
M195.922318,363.692017 
	C224.099716,377.086548 253.362671,380.040649 283.471863,371.973846 
	C346.310150,355.138367 385.747223,293.379852 374.025787,229.324127 
	C365.447174,182.443344 338.161652,149.491745 293.680267,133.388458 
	C246.987656,116.484657 203.267349,125.366966 166.242111,158.654587 
	C101.044708,217.270447 116.601860,324.353394 195.922318,363.692017 
z"/>
<path fill="#EF4A4A" opacity="1.000000" stroke="none" 
	d="
M223.671173,428.841827 
	C217.047195,428.012939 210.852081,427.160004 204.227570,426.247955 
	C206.402756,413.580292 208.463333,401.580048 210.603134,389.118500 
	C216.551315,390.218262 222.146805,390.892609 227.538071,392.331970 
	C236.149277,394.630920 241.278214,401.893066 240.929199,410.421082 
	C240.516800,420.497528 234.933273,426.601166 223.671173,428.841827 
M215.584595,414.070343 
	C215.350433,415.958649 215.116272,417.846954 214.896896,419.616058 
	C220.534790,421.166534 225.598923,421.920654 229.162094,417.070618 
	C231.966843,413.252899 232.789688,408.732605 230.444794,404.369781 
	C227.935425,399.700958 223.431717,398.794983 218.228714,398.899628 
	C217.395081,403.776001 216.587738,408.498535 215.584595,414.070343 
z"/>
<path fill="#EF4949" opacity="1.000000" stroke="none" 
	d="
M291.371094,81.906998 
	C295.858459,96.328636 285.137482,110.118980 270.184662,107.602051 
	C260.709534,106.007149 254.238892,98.481148 254.048141,89.349411 
	C253.855011,80.103867 259.830139,72.054146 268.354218,70.076225 
	C278.159515,67.801010 286.773560,72.123970 291.371094,81.906998 
M265.398315,95.829369 
	C269.727722,99.681908 274.731293,100.495888 278.512665,97.962784 
	C282.457611,95.320122 284.337952,88.881645 282.579468,84.037964 
	C281.011932,79.720146 276.713562,77.316658 271.732330,77.972641 
	C264.809753,78.884277 261.676544,86.833298 265.398315,95.829369 
z"/>
<path fill="#EF4949" opacity="1.000000" stroke="none" 
	d="
M121.554787,186.424271 
	C119.230408,191.064346 117.089600,195.362137 114.760223,200.038467 
	C103.592941,194.420563 92.699486,188.940414 81.131325,183.120850 
	C84.333954,177.281006 86.858948,171.459122 90.456512,166.399918 
	C95.963036,158.656174 105.451134,157.224808 114.042656,162.046616 
	C122.852654,166.991028 125.498589,175.254898 121.554787,186.424271 
M114.579620,175.432877 
	C111.823235,170.397186 107.460281,167.900543 101.874092,168.656693 
	C96.406647,169.396790 94.275963,173.736313 92.754326,178.747040 
	C99.173271,181.976135 105.325134,185.070862 112.808250,188.835297 
	C113.587738,184.038574 114.225273,180.115433 114.579620,175.432877 
z"/>
<path fill="#EF4A4A" opacity="1.000000" stroke="none" 
	d="
M362.227661,124.343201 
	C358.580170,125.539711 355.214722,126.481720 351.135132,127.623634 
	C350.657318,131.586334 350.030975,136.780746 349.392914,142.072495 
	C341.593689,138.932617 341.125671,138.179230 341.934692,130.490356 
	C342.246735,127.524445 342.603973,124.562660 342.855438,121.591789 
	C342.888184,121.205132 342.410126,120.775230 341.737091,119.632912 
	C338.751160,123.474113 335.999176,127.014351 332.894562,131.008240 
	C330.528839,129.241760 328.216400,127.515060 325.708069,125.642097 
	C333.084503,115.585091 340.241882,105.826736 347.954346,95.311546 
	C353.354614,99.644806 359.013947,103.426865 363.707764,108.165344 
	C368.422607,112.925072 367.594635,118.294601 362.227661,124.343201 
M349.995789,108.120590 
	C348.499268,110.202301 347.002747,112.284004 345.365479,114.561501 
	C347.426910,116.031540 348.899384,117.754120 350.670044,118.152924 
	C352.399933,118.542564 355.423126,118.175400 356.089935,117.065689 
	C356.968079,115.604271 356.749634,112.697060 355.802521,111.142815 
	C354.818542,109.528099 352.403595,108.785385 349.995789,108.120590 
z"/>
<path fill="#EF4A4A" opacity="1.000000" stroke="none" 
	d="
M161.418945,92.244217 
	C170.689285,88.554031 177.906357,91.264626 179.372635,99.328644 
	C179.963913,102.580521 178.518600,106.202705 177.910187,110.255577 
	C181.623169,112.404587 186.155411,115.027779 190.808609,117.720963 
	C183.467041,123.755051 183.477890,123.736786 176.130234,119.371315 
	C173.530792,117.826904 170.864151,116.395622 168.228180,114.912697 
	C167.843933,115.269325 167.459686,115.625946 167.075439,115.982574 
	C169.221634,119.883522 171.367828,123.784470 173.829849,128.259460 
	C171.485641,129.660660 169.143051,131.060898 166.137466,132.857422 
	C159.859360,122.146217 153.696869,111.632263 147.193756,100.537186 
	C152.026062,97.711884 156.552505,95.065407 161.418945,92.244217 
M168.917618,107.283195 
	C171.782639,105.150352 172.075272,102.355064 169.565353,100.179199 
	C165.362701,96.535896 162.516159,100.852409 158.942520,102.511772 
	C160.538986,105.234711 161.994843,107.717804 163.539078,110.351631 
	C165.458435,109.298347 166.884262,108.515892 168.917618,107.283195 
z"/>
<path fill="#EF4848" opacity="1.000000" stroke="none" 
	d="
M292.015564,391.331879 
	C294.457581,384.688354 299.548492,382.275452 305.687744,381.636230 
	C311.611023,381.019562 315.946442,384.309082 318.150452,389.130005 
	C320.790009,394.903625 322.871368,401.175079 323.762024,407.434753 
	C324.589355,413.249359 320.694885,417.445526 314.731903,419.717621 
	C308.644470,422.037140 303.680145,421.272400 299.720276,416.588379 
	C293.697479,409.464172 290.447784,401.282806 292.015564,391.331879 
M311.561096,395.060059 
	C309.898163,392.387085 308.290894,388.967773 304.447754,390.705200 
	C302.614136,391.534180 300.144287,394.438293 300.448700,395.876160 
	C301.453644,400.622894 303.237823,405.316010 305.501251,409.620392 
	C306.226685,410.999969 309.821991,412.157562 311.289368,411.525360 
	C313.018341,410.780396 314.978271,407.903839 314.851959,406.089813 
	C314.607971,402.586304 312.970245,399.179840 311.561096,395.060059 
z"/>
<path fill="#EF4A4A" opacity="1.000000" stroke="none" 
	d="
M130.954376,125.026161 
	C134.621613,128.207825 138.109238,131.061874 141.376953,134.148743 
	C148.170639,140.566437 148.455673,148.747665 142.290451,155.929260 
	C136.260696,162.953079 128.454407,163.828049 121.115822,157.923767 
	C115.286766,153.233994 109.766838,148.160019 103.636284,142.846298 
	C105.525520,140.621964 107.295937,138.537537 109.551079,135.882385 
	C115.176224,140.777771 120.612526,145.545654 126.092415,150.262894 
	C129.004028,152.769287 132.073441,153.987854 135.403870,150.907028 
	C138.846588,147.722336 138.783752,144.151596 134.888916,140.606186 
	C129.601593,135.793213 124.139641,131.172104 118.314743,126.086411 
	C120.240997,123.810448 122.006355,121.724594 124.158302,119.181969 
	C126.496689,121.199257 128.585953,123.001625 130.954376,125.026161 
z"/>
<path fill="#EF4949" opacity="1.000000" stroke="none" 
	d="
M322.433899,97.421600 
	C324.212982,93.285484 325.814209,89.488350 327.553741,85.363258 
	C330.485443,86.509148 333.050171,87.511589 336.047913,88.683289 
	C332.693512,96.523209 329.838928,104.139755 326.225800,111.377647 
	C322.506775,118.827621 314.717926,120.878235 306.492157,117.298737 
	C298.503876,113.822578 295.090485,107.052856 297.922394,99.111458 
	C300.584930,91.645088 303.834442,84.388031 306.996948,76.618073 
	C309.980133,77.906853 312.492493,78.992233 315.357849,80.230110 
	C312.406036,87.452904 309.465149,94.281746 306.828278,101.226021 
	C304.969360,106.121460 307.693298,110.410469 312.676117,110.054420 
	C314.729156,109.907715 317.232117,108.162300 318.470764,106.399475 
	C320.242371,103.878090 321.041565,100.673439 322.433899,97.421600 
z"/>
<path fill="#EF4A4A" opacity="1.000000" stroke="none" 
	d="
M361.188599,156.637909 
	C356.966949,149.202820 357.270020,142.255035 362.310944,135.838562 
	C367.324768,129.456543 374.043365,126.311646 382.104736,128.248108 
	C389.867645,130.112885 394.972382,135.543625 396.302185,143.335907 
	C396.998627,147.416733 395.598328,151.855377 394.406464,156.127289 
	C390.528809,153.072464 386.880188,150.810211 387.753540,145.260544 
	C388.409119,141.094864 383.919373,137.107056 379.603699,136.802841 
	C374.044678,136.410980 367.791107,141.433380 367.101227,146.843872 
	C366.449524,151.955383 370.241241,155.400848 376.258148,157.185745 
	C379.279083,158.081924 381.597412,161.346649 384.625946,163.866806 
	C375.241913,168.135117 367.983582,165.715683 361.188599,156.637909 
z"/>
<path fill="#EF4848" opacity="1.000000" stroke="none" 
	d="
M82.567635,314.822449 
	C82.515472,311.869232 82.427727,308.804657 83.323685,306.061310 
	C84.504944,302.444427 83.569885,300.082733 80.731522,297.848907 
	C78.306343,295.940308 76.180069,293.651886 73.652458,290.566772 
	C85.530159,292.415741 91.842598,287.058960 93.603294,275.523773 
	C93.983803,275.748474 94.364304,275.973175 94.744812,276.197906 
	C95.994904,278.959869 97.543060,281.630585 98.423294,284.505768 
	C99.658363,288.539978 102.255745,289.953339 106.220856,289.958008 
	C109.003075,289.961273 111.784821,290.374176 115.913445,290.715454 
	C111.715469,294.722870 106.873734,297.338287 105.550331,301.169128 
	C104.210785,305.046753 106.352333,310.126984 107.097054,315.625305 
	C103.957008,313.853302 101.260735,312.653717 98.940659,310.943726 
	C95.799477,308.628571 93.041573,308.634674 89.906845,310.917267 
	C87.771263,312.472290 85.294167,313.558319 82.567635,314.822449 
z"/>
<path fill="#EF4949" opacity="1.000000" stroke="none" 
	d="
M421.626038,297.904755 
	C418.585571,300.008606 418.212769,302.545380 418.990479,305.578094 
	C419.766113,308.602570 420.301270,311.688721 421.183868,315.903503 
	C417.984314,314.093811 415.424774,313.021301 413.317139,311.371460 
	C409.579712,308.445953 406.242310,308.697937 402.574402,311.460938 
	C400.495544,313.026917 398.028503,314.077545 394.890717,315.354370 
	C399.642670,305.021454 397.196228,297.127472 387.072693,290.984711 
	C398.748993,291.956787 405.667816,287.516357 407.071655,275.752258 
	C407.507629,275.909210 407.943604,276.066162 408.379578,276.223114 
	C409.611542,278.978973 411.098480,281.653198 412.013641,284.510559 
	C413.277557,288.456787 415.840210,289.948273 419.798431,289.952911 
	C422.582397,289.956177 425.365845,290.365753 429.343475,290.691772 
	C426.330078,293.516266 424.122650,295.585327 421.626038,297.904755 
z"/>
<path fill="#F04A4A" opacity="1.000000" stroke="none" 
	d="
M149.326233,391.686096 
	C151.484039,392.233795 153.408691,392.506195 155.333344,392.778564 
	C155.142761,390.649811 155.445984,388.306641 154.638016,386.445984 
	C153.601791,384.059662 151.561157,382.130737 150.151764,379.880432 
	C147.752350,376.049408 147.332443,372.167847 150.139572,368.239716 
	C152.891937,364.388184 156.647781,363.100677 161.076630,364.050812 
	C170.941040,366.167175 178.478378,377.020844 172.514954,383.865936 
	C169.340240,381.424744 164.602936,380.622711 164.676529,374.915619 
	C164.687485,374.065491 161.428253,373.173187 159.681885,372.300385 
	C159.281204,374.031219 158.064377,376.126099 158.641846,377.420593 
	C160.046005,380.568207 162.347870,383.304626 164.169281,386.279449 
	C166.582352,390.220581 166.712265,394.176178 163.609497,397.830139 
	C160.529648,401.457062 156.608231,402.722534 151.955124,401.476349 
	C141.908112,398.785522 136.699081,389.430664 141.169281,381.361328 
	C145.366867,383.536743 149.320938,385.715973 149.326233,391.686096 
z"/>
<path fill="#EF4A4A" opacity="1.000000" stroke="none" 
	d="
M234.790359,77.972839 
	C231.912262,76.266327 229.102768,75.625488 228.019974,79.127800 
	C226.978745,82.495720 230.067444,83.164871 232.448898,83.866127 
	C235.471939,84.756302 238.631485,85.252357 241.565338,86.360146 
	C246.227814,88.120636 248.571945,92.392845 247.861069,97.057503 
	C246.970673,102.900108 241.629135,106.909775 234.303635,107.234489 
	C226.067078,107.599586 221.744308,104.764366 220.062103,97.473228 
	C223.862320,97.648232 227.668289,94.409042 231.184143,98.906685 
	C231.907394,99.831902 234.570908,99.681976 236.169891,99.305214 
	C237.042633,99.099571 238.357040,96.990059 238.078445,96.418167 
	C237.374847,94.973824 236.092484,93.390671 234.659454,92.814392 
	C232.074524,91.774879 229.182953,91.528320 226.468475,90.774117 
	C221.051102,89.268913 218.217560,85.907028 218.035538,80.990410 
	C217.858597,76.211166 220.620178,72.317497 225.563599,70.376297 
	C234.799026,66.749680 243.451874,70.252731 245.265320,79.473625 
	C241.645081,79.054306 238.351181,78.672791 234.790359,77.972839 
z"/>
<path fill="#EF4A4A" opacity="1.000000" stroke="none" 
	d="
M354.272827,351.888428 
	C356.030579,348.226288 357.876251,344.960907 360.311554,340.652283 
	C366.109161,347.303741 371.000519,352.915497 376.173889,358.850800 
	C381.453888,353.617371 383.363037,357.552612 386.075073,360.290955 
	C385.401001,361.415344 384.696045,362.591217 383.896637,363.924683 
	C385.290771,365.410248 386.640533,366.848511 388.526367,368.857971 
	C386.245178,370.653412 384.059326,372.373840 381.590912,374.316650 
	C380.485870,373.404755 378.872589,372.073456 377.002228,370.529999 
	C373.045837,374.760345 369.210754,378.861023 364.151184,384.270905 
	C361.819092,379.846924 359.437256,376.761902 358.522552,373.290344 
	C356.707428,366.401337 355.701263,359.299194 354.272827,351.888428 
M362.875977,355.892731 
	C362.875977,355.892731 362.748077,355.900696 362.748077,355.900696 
	C362.748077,355.900696 363.115631,355.903870 362.833679,356.722382 
	C363.660187,361.035553 364.486664,365.348694 365.317932,369.686768 
	C367.518921,367.745209 369.417480,366.070435 371.715118,364.043640 
	C368.787140,361.311768 365.921539,358.638062 362.875977,355.892731 
z"/>
<path fill="#EF4A4A" opacity="1.000000" stroke="none" 
	d="
M395.606323,222.426270 
	C387.985168,212.832352 389.240295,202.482788 398.610840,198.033386 
	C399.677155,201.944260 402.813812,205.454269 398.864410,209.708420 
	C398.104889,210.526520 398.791351,213.177826 399.491791,214.662033 
	C399.865295,215.453552 402.088348,216.230682 402.781708,215.825394 
	C404.036438,215.092026 405.327454,213.582123 405.611816,212.193420 
	C406.307526,208.795685 406.285492,205.257828 406.834595,201.821472 
	C407.504242,197.631348 410.059570,194.938889 414.224213,194.022141 
	C418.463470,193.088943 422.175293,194.090698 424.934967,197.626526 
	C431.261902,205.732773 430.141510,218.506622 421.197998,220.278214 
	C420.072693,216.564484 417.329010,213.188263 420.679260,208.892349 
	C421.318512,208.072647 419.291290,205.173431 418.494293,203.233643 
	C417.067902,204.516037 414.921417,205.551575 414.378021,207.136673 
	C413.485260,209.740814 413.785431,212.727417 413.312897,215.506912 
	C411.604462,225.555679 404.265991,228.545670 395.606323,222.426270 
z"/>
<path fill="#F04A4A" opacity="1.000000" stroke="none" 
	d="
M289.950653,424.900696 
	C288.600433,426.149139 287.304169,427.466217 285.828796,427.713196 
	C278.791077,428.891235 271.704681,429.778625 264.365845,430.807159 
	C262.387115,427.299713 262.427216,424.345215 265.400482,421.080109 
	C268.960815,417.170349 272.236755,412.910370 275.009338,408.415588 
	C276.264099,406.381439 276.394562,403.392242 276.249969,400.881561 
	C276.189758,399.836609 274.183868,398.343475 272.871368,398.104370 
	C271.779083,397.905396 269.386383,399.153198 269.319916,399.913239 
	C268.777924,406.111206 264.238647,404.703186 260.301453,405.145874 
	C259.113190,399.855774 260.580017,395.637909 264.782593,392.765015 
	C269.615295,389.461334 274.992706,388.728241 280.358093,391.543732 
	C284.312683,393.618927 286.925720,399.147980 285.610901,404.065826 
	C284.565887,407.974304 282.369812,411.614349 280.406921,415.222443 
	C279.331024,417.200073 277.679504,418.864532 275.672363,421.468292 
	C280.625183,420.876617 284.645477,420.396332 288.953979,419.881653 
	C289.321045,421.623718 289.621552,423.049988 289.950653,424.900696 
z"/>
<path fill="#EF4A4A" opacity="1.000000" stroke="none" 
	d="
M324.564056,371.671021 
	C330.813904,365.964844 335.676453,364.667786 340.469513,367.225922 
	C345.589783,369.958710 348.564117,376.756836 347.464264,383.598145 
	C346.864929,387.326080 346.003296,391.011810 345.114563,395.441101 
	C349.185608,392.851624 352.749207,390.584900 356.547852,388.168701 
	C357.939850,390.230560 359.123322,391.983582 360.660736,394.260925 
	C353.195190,399.139221 346.024048,403.825104 338.693146,408.615417 
	C335.559387,405.963135 334.140839,403.309326 335.709839,399.105042 
	C337.264404,394.939453 338.014496,390.461456 338.954224,386.085480 
	C339.262726,384.648956 339.229340,383.083344 339.058777,381.610779 
	C338.660553,378.172791 337.829041,374.343323 333.419861,375.022919 
	C329.033051,375.699097 329.632904,379.258209 331.251984,382.597870 
	C328.847656,384.206909 326.681915,385.656311 324.529755,387.096619 
	C320.542664,381.804688 320.531921,377.862335 324.564056,371.671021 
z"/>
<path fill="#EF4A4A" opacity="1.000000" stroke="none" 
	d="
M79.244232,219.728729 
	C76.635773,219.007858 74.424255,218.394501 71.755096,217.654205 
	C73.545425,210.373108 75.274605,203.340668 77.141136,195.749649 
	C79.513870,196.269852 81.664436,196.741348 84.201622,197.297623 
	C83.149895,201.827621 82.184525,205.985672 81.100494,210.654861 
	C83.354683,211.194916 85.516983,211.712967 88.201309,212.356079 
	C89.260735,208.436523 90.234802,204.832748 91.333603,200.767502 
	C93.587181,201.299088 95.604042,201.774841 97.945282,202.327103 
	C97.106491,206.248322 96.324364,209.904617 95.454468,213.971252 
	C97.890419,214.709427 100.053619,215.364960 102.856506,216.214325 
	C104.073746,211.838959 105.244530,207.630585 106.558197,202.908630 
	C108.682434,203.394226 110.694313,203.854156 113.487556,204.492706 
	C111.678551,211.887268 109.933777,219.019257 108.054108,226.702637 
	C98.256416,224.334885 88.948799,222.085556 79.244232,219.728729 
z"/>
<path fill="#F04B4B" opacity="1.000000" stroke="none" 
	d="
M403.826965,181.288605 
	C404.485474,182.856964 404.987457,184.068665 405.602905,185.554321 
	C403.700745,186.548111 401.971954,187.451324 399.763855,188.604950 
	C397.857635,185.050400 396.095062,181.763611 394.062653,177.973740 
	C391.771057,179.043777 389.589630,180.062363 386.935577,181.301620 
	C388.886322,185.439331 390.751892,189.396317 392.779236,193.696442 
	C390.720520,194.785278 388.846069,195.776672 386.465942,197.035507 
	C383.076752,190.239212 379.783447,183.635223 376.222748,176.495010 
	C387.482300,170.881882 398.403198,165.437561 409.718353,159.796692 
	C413.143616,166.691162 416.442993,173.332306 419.933289,180.357742 
	C417.748352,181.444839 415.870575,182.379120 413.455688,183.580612 
	C411.404175,179.568527 409.473297,175.792450 407.232697,171.410614 
	C405.079834,172.441605 403.072113,173.403091 400.542572,174.614502 
	C401.655823,176.862961 402.663147,178.897446 403.826965,181.288605 
z"/>
<path fill="#EF4A4A" opacity="1.000000" stroke="none" 
	d="
M195.396500,86.786560 
	C196.078598,88.690788 196.629333,90.236969 197.348709,92.256607 
	C201.083618,91.106270 204.662292,90.004051 208.662872,88.771889 
	C209.443192,90.796776 210.189819,92.734222 211.128891,95.171059 
	C207.219635,96.564476 203.562332,97.868095 199.582413,99.286697 
	C200.406906,101.813454 201.110672,103.970215 201.996338,106.684418 
	C206.447372,105.357506 210.619751,104.113655 215.228302,102.739777 
	C215.967804,105.055031 216.603500,107.045319 217.402039,109.545403 
	C210.086166,111.956810 203.083618,114.264931 195.657959,116.712524 
	C191.695084,104.709396 187.910126,93.245224 183.938400,81.215332 
	C191.061981,78.831352 198.077194,76.483635 205.508377,73.996719 
	C206.339233,76.216736 207.120880,78.305267 207.852188,80.259262 
	C203.505264,82.389801 199.385193,84.409149 195.396500,86.786560 
z"/>
<path fill="#EF4949" opacity="1.000000" stroke="none" 
	d="
M152.846222,357.674744 
	C151.313080,359.201019 149.991974,360.413849 148.456329,361.823608 
	C145.270966,358.492950 142.305283,355.391998 139.009872,351.946259 
	C137.270767,353.532135 135.609787,355.046783 133.614410,356.866394 
	C136.286758,359.861237 138.791336,362.668060 141.877777,366.126953 
	C140.226807,367.604492 138.672089,368.995880 136.743027,370.722290 
	C133.882156,367.703918 131.293259,364.972473 128.382568,361.901520 
	C126.389267,363.733368 124.501961,365.467804 122.399757,367.399750 
	C125.574738,370.843536 128.482742,373.997772 131.839005,377.638184 
	C130.099182,379.257965 128.557861,380.692932 126.538025,382.573425 
	C121.253952,376.943512 116.201622,371.560547 110.719727,365.719879 
	C119.816185,357.247375 128.735016,348.940338 138.408524,339.930389 
	C143.450974,345.930115 148.254623,351.645721 152.846222,357.674744 
z"/>
<path fill="#EF4A4A" opacity="1.000000" stroke="none" 
	d="
M179.685226,384.201111 
	C179.815887,381.847412 180.267441,379.704346 180.858780,376.897949 
	C190.150269,380.829926 198.791000,384.486542 207.885345,388.335114 
	C206.941849,390.614349 206.093109,392.664764 205.113998,395.030029 
	C202.032883,393.788452 199.314194,392.692932 196.016006,391.363892 
	C192.076477,400.510864 188.230316,409.441101 184.206894,418.782928 
	C181.306992,417.617035 178.755768,416.591370 175.813004,415.408264 
	C179.716919,406.134338 183.498749,397.150452 187.428802,387.814423 
	C184.741272,386.582428 182.373703,385.497101 179.685226,384.201111 
z"/>
<path fill="#FFFFFF" opacity="1.000000" stroke="none" 
	d="
M195.601654,363.495728 
	C116.601860,324.353394 101.044708,217.270447 166.242111,158.654587 
	C203.267349,125.366966 246.987656,116.484657 293.680267,133.388458 
	C338.161652,149.491745 365.447174,182.443344 374.025787,229.324127 
	C385.747223,293.379852 346.310150,355.138367 283.471863,371.973846 
	C253.362671,380.040649 224.099716,377.086548 195.601654,363.495728 
z"/>
<path fill="#FFF9F9" opacity="1.000000" stroke="none" 
	d="
M215.682495,413.645691 
	C216.587738,408.498535 217.395081,403.776001 218.228714,398.899628 
	C223.431717,398.794983 227.935425,399.700958 230.444794,404.369781 
	C232.789688,408.732605 231.966843,413.252899 229.162094,417.070618 
	C225.598923,421.920654 220.534790,421.166534 214.896896,419.616058 
	C215.116272,417.846954 215.350433,415.958649 215.682495,413.645691 
z"/>
<path fill="#FFFCFC" opacity="1.000000" stroke="none" 
	d="
M265.184998,95.477028 
	C261.676544,86.833298 264.809753,78.884277 271.732330,77.972641 
	C276.713562,77.316658 281.011932,79.720146 282.579468,84.037964 
	C284.337952,88.881645 282.457611,95.320122 278.512665,97.962784 
	C274.731293,100.495888 269.727722,99.681908 265.184998,95.477028 
z"/>
<path fill="#FFF9F9" opacity="1.000000" stroke="none" 
	d="
M114.721214,175.812576 
	C114.225273,180.115433 113.587738,184.038574 112.808250,188.835297 
	C105.325134,185.070862 99.173271,181.976135 92.754326,178.747040 
	C94.275963,173.736313 96.406647,169.396790 101.874092,168.656693 
	C107.460281,167.900543 111.823235,170.397186 114.721214,175.812576 
z"/>
<path fill="#FEF7F7" opacity="1.000000" stroke="none" 
	d="
M350.305115,107.890961 
	C352.403595,108.785385 354.818542,109.528099 355.802521,111.142815 
	C356.749634,112.697060 356.968079,115.604271 356.089935,117.065689 
	C355.423126,118.175400 352.399933,118.542564 350.670044,118.152924 
	C348.899384,117.754120 347.426910,116.031540 345.365479,114.561501 
	C347.002747,112.284004 348.499268,110.202301 350.305115,107.890961 
z"/>
<path fill="#FEF7F7" opacity="1.000000" stroke="none" 
	d="
M168.613861,107.508316 
	C166.884262,108.515892 165.458435,109.298347 163.539078,110.351631 
	C161.994843,107.717804 160.538986,105.234711 158.942520,102.511772 
	C162.516159,100.852409 165.362701,96.535896 169.565353,100.179199 
	C172.075272,102.355064 171.782639,105.150352 168.613861,107.508316 
z"/>
<path fill="#FFF9F9" opacity="1.000000" stroke="none" 
	d="
M311.735718,395.396606 
	C312.970245,399.179840 314.607971,402.586304 314.851959,406.089813 
	C314.978271,407.903839 313.018341,410.780396 311.289368,411.525360 
	C309.821991,412.157562 306.226685,410.999969 305.501251,409.620392 
	C303.237823,405.316010 301.453644,400.622894 300.448700,395.876160 
	C300.144287,394.438293 302.614136,391.534180 304.447754,390.705200 
	C308.290894,388.967773 309.898163,392.387085 311.735718,395.396606 
z"/>
<path fill="#FEF0F0" opacity="1.000000" stroke="none" 
	d="
M363.055939,355.964355 
	C365.921539,358.638062 368.787140,361.311768 371.715118,364.043640 
	C369.417480,366.070435 367.518921,367.745209 365.317932,369.686768 
	C364.486664,365.348694 363.660187,361.035553 362.955933,356.325928 
	C363.078156,355.929474 363.055939,355.964355 363.055939,355.964355 
z"/>
<path fill="#FEF0F0" opacity="1.000000" stroke="none" 
	d="
M363.096893,355.916687 
	C363.115631,355.903870 362.748077,355.900696 362.748077,355.900696 
	C362.748077,355.900696 362.875977,355.892731 362.965942,355.928528 
	C363.055939,355.964355 363.078156,355.929474 363.096893,355.916687 
z"/>
</svg>